<svg width="41" height="32" viewBox="0 0 41 32" fill="none" xmlns="http://www.w3.org/2000/svg">
<path d="M40.8 8.26385V25.725C40.8 27.3495 40.1283 28.9074 38.9328 30.056C37.7373 31.2047 36.1158 31.85 34.425 31.85H6.375C4.68424 31.85 3.06274 31.2047 1.86719 30.056C0.67165 28.9074 0 27.3495 0 25.725V8.26385L19.7523 19.431C19.9485 19.5421 20.1722 19.6008 20.4 19.6008C20.6278 19.6008 20.8515 19.5421 21.0477 19.431L40.8 8.26385ZM34.425 7.58341e-08C35.9936 -0.000236954 37.5073 0.555186 38.6764 1.56001C39.8455 2.56484 40.5879 3.94852 40.7617 5.44635L20.4 16.954L0.0382503 5.44635C0.212054 3.94852 0.954526 2.56484 2.12363 1.56001C3.29273 0.555186 4.80638 -0.000236954 6.375 7.58341e-08H34.425Z" fill="white" fill-opacity="0.75"/>
</svg>
