<svg width="15" height="16" viewBox="0 0 15 16" fill="none" xmlns="http://www.w3.org/2000/svg">
<path d="M2.44294 5.4483C2.03318 5.4483 1.64021 5.28553 1.35047 4.99578C1.06072 4.70604 0.897949 4.31307 0.897949 3.90331V1.58582C0.897949 1.17607 1.06072 0.783092 1.35047 0.49335C1.64021 0.203608 2.03318 0.0408325 2.44294 0.0408325H5.53292C5.94268 0.0408325 6.33565 0.203608 6.6254 0.49335C6.91514 0.783092 7.07791 1.17607 7.07791 1.58582V3.90331C7.07791 4.31307 6.91514 4.70604 6.6254 4.99578C6.33565 5.28553 5.94268 5.4483 5.53292 5.4483H2.44294ZM2.44294 3.90331H5.53292V1.58582H2.44294V3.90331ZM2.44294 15.4907C2.03318 15.4907 1.64021 15.328 1.35047 15.0382C1.06072 14.7485 0.897949 14.3555 0.897949 13.9458V7.76579C0.897949 7.35603 1.06072 6.96306 1.35047 6.67332C1.64021 6.38357 2.03318 6.2208 2.44294 6.2208H5.53292C5.94268 6.2208 6.33565 6.38357 6.6254 6.67332C6.91514 6.96306 7.07791 7.35603 7.07791 7.76579V13.9458C7.07791 14.3555 6.91514 14.7485 6.6254 15.0382C6.33565 15.328 5.94268 15.4907 5.53292 15.4907H2.44294ZM2.44294 13.9458H5.53292V7.76579H2.44294V13.9458ZM8.6229 13.9458C8.6229 14.3555 8.78568 14.7485 9.07542 15.0382C9.36516 15.328 9.75814 15.4907 10.1679 15.4907H13.2579C13.6676 15.4907 14.0606 15.328 14.3504 15.0382C14.6401 14.7485 14.8029 14.3555 14.8029 13.9458V12.4008C14.8029 11.991 14.6401 11.598 14.3504 11.3083C14.0606 11.0185 13.6676 10.8558 13.2579 10.8558H10.1679C9.75814 10.8558 9.36516 11.0185 9.07542 11.3083C8.78568 11.598 8.6229 11.991 8.6229 12.4008V13.9458ZM13.2579 13.9458H10.1679V12.4008H13.2579V13.9458ZM10.1679 9.31078C9.75814 9.31078 9.36516 9.148 9.07542 8.85826C8.78568 8.56852 8.6229 8.17555 8.6229 7.76579V1.58582C8.6229 1.17607 8.78568 0.783092 9.07542 0.49335C9.36516 0.203608 9.75814 0.0408325 10.1679 0.0408325H13.2579C13.6676 0.0408325 14.0606 0.203608 14.3504 0.49335C14.6401 0.783092 14.8029 1.17607 14.8029 1.58582V7.76579C14.8029 8.17555 14.6401 8.56852 14.3504 8.85826C14.0606 9.148 13.6676 9.31078 13.2579 9.31078H10.1679ZM10.1679 7.76579H13.2579V1.58582H10.1679V7.76579Z" fill="url(#paint0_linear_2161_116)"/>
<defs>
<linearGradient id="paint0_linear_2161_116" x1="0.897949" y1="1.11663" x2="14.5248" y2="15.8193" gradientUnits="userSpaceOnUse">
<stop stop-color="#94AF99"/>
<stop offset="1" stop-color="#95B29C"/>
</linearGradient>
</defs>
</svg>
