<svg width="47" height="26" viewBox="0 0 47 26" fill="none" xmlns="http://www.w3.org/2000/svg">
<path d="M12.8182 17.3333C11.685 17.3333 10.5982 16.8768 9.79691 16.0641C8.99562 15.2515 8.54545 14.1493 8.54545 13C8.54545 11.8507 8.99562 10.7485 9.79691 9.93587C10.5982 9.12321 11.685 8.66667 12.8182 8.66667C13.9514 8.66667 15.0382 9.12321 15.8395 9.93587C16.6407 10.7485 17.0909 11.8507 17.0909 13C17.0909 14.1493 16.6407 15.2515 15.8395 16.0641C15.0382 16.8768 13.9514 17.3333 12.8182 17.3333ZM24.8886 8.66667C24.0086 6.13271 22.3749 3.93818 20.2129 2.38585C18.0509 0.833523 15.4672 -9.92192e-05 12.8182 8.85748e-09C9.41859 8.85748e-09 6.15823 1.36964 3.75436 3.80761C1.35048 6.24559 0 9.55219 0 13C0 16.4478 1.35048 19.7544 3.75436 22.1924C6.15823 24.6304 9.41859 26 12.8182 26C15.4672 26.0001 18.0509 25.1665 20.2129 23.6141C22.3749 22.0618 24.0086 19.8673 24.8886 17.3333H34.1818V26H42.7273V17.3333H47V8.66667H24.8886Z" fill="white" fill-opacity="0.75"/>
</svg>
