<svg width="8" height="15" viewBox="0 0 8 15" fill="none" xmlns="http://www.w3.org/2000/svg">
<path d="M4 6.6V15M4 6.6C4.79565 6.6 5.55871 6.305 6.12132 5.7799C6.68393 5.2548 7 4.54261 7 3.8C7 3.05739 6.68393 2.3452 6.12132 1.8201C5.55871 1.295 4.79565 1 4 1C3.20435 1 2.44129 1.295 1.87868 1.8201C1.31607 2.3452 1 3.05739 1 3.8C1 4.54261 1.31607 5.2548 1.87868 5.7799C2.44129 6.305 3.20435 6.6 4 6.6V6.6Z" stroke="url(#paint0_linear)" stroke-width="1.33333"/>
<ellipse cx="3.8125" cy="3.625" rx="2.8125" ry="2.625" fill="#729C93"/>
<defs>
<linearGradient id="paint0_linear" x1="4" y1="1" x2="3.83666" y2="15.1753" gradientUnits="userSpaceOnUse">
<stop stop-color="#6B9693"/>
<stop offset="1" stop-color="#7DA491"/>
</linearGradient>
</defs>
</svg>
