<svg width="36" height="39" viewBox="0 0 36 39" fill="none" xmlns="http://www.w3.org/2000/svg">
<path d="M23.8463 23.8647C23.5854 23.7859 21.9364 23.0993 22.9668 20.2056H22.9521C25.6381 17.65 27.6908 13.5376 27.6908 9.4889C27.6908 3.26352 23.2097 0 18.0016 0C12.7903 0 8.33382 3.262 8.33382 9.4889C8.33382 13.5543 10.375 17.6833 13.0775 20.2329C14.1309 22.7855 12.2472 23.7329 11.8534 23.8663C6.39927 25.6882 0 29.0094 0 32.288V33.5174C0 37.9844 9.37575 39 18.0525 39C26.7424 39 36 37.9844 36 33.5174V32.288C36 28.9108 29.5696 25.6155 23.8463 23.8647Z" fill="white" fill-opacity="0.75"/>
</svg>
