<svg width="18" height="19" viewBox="0 0 18 19" fill="none" xmlns="http://www.w3.org/2000/svg">
<path d="M14.5408 13.1837C13.8501 13.1837 13.2128 13.426 12.7135 13.8307L7.69209 10.198C7.77617 9.73645 7.77617 9.26355 7.69209 8.80204L12.7135 5.16926C13.2128 5.57398 13.8501 5.81633 14.5408 5.81633C16.1452 5.81633 17.449 4.5125 17.449 2.90816C17.449 1.30383 16.1452 0 14.5408 0C12.9365 0 11.6327 1.30383 11.6327 2.90816C11.6327 3.18929 11.6714 3.45829 11.7466 3.71518L6.97717 7.16862C6.26951 6.23074 5.14503 5.62245 3.87755 5.62245C1.7352 5.62245 0 7.35765 0 9.5C0 11.6423 1.7352 13.3776 3.87755 13.3776C5.14503 13.3776 6.26951 12.7693 6.97717 11.8314L11.7466 15.2848C11.6714 15.5417 11.6327 15.8131 11.6327 16.0918C11.6327 17.6962 12.9365 19 14.5408 19C16.1452 19 17.449 17.6962 17.449 16.0918C17.449 14.4875 16.1452 13.1837 14.5408 13.1837ZM14.5408 1.64796C15.2364 1.64796 15.801 2.21263 15.801 2.90816C15.801 3.6037 15.2364 4.16837 14.5408 4.16837C13.8453 4.16837 13.2806 3.6037 13.2806 2.90816C13.2806 2.21263 13.8453 1.64796 14.5408 1.64796ZM3.87755 11.6327C2.70217 11.6327 1.7449 10.6754 1.7449 9.5C1.7449 8.32462 2.70217 7.36735 3.87755 7.36735C5.05293 7.36735 6.0102 8.32462 6.0102 9.5C6.0102 10.6754 5.05293 11.6327 3.87755 11.6327ZM14.5408 17.352C13.8453 17.352 13.2806 16.7874 13.2806 16.0918C13.2806 15.3963 13.8453 14.8316 14.5408 14.8316C15.2364 14.8316 15.801 15.3963 15.801 16.0918C15.801 16.7874 15.2364 17.352 14.5408 17.352Z" fill="url(#paint0_linear_2161_137)"/>
<defs>
<linearGradient id="paint0_linear_2161_137" x1="5.32824e-08" y1="1.5" x2="17" y2="20" gradientUnits="userSpaceOnUse">
<stop stop-color="#99B9AB"/>
<stop offset="1" stop-color="#9BBCB1"/>
</linearGradient>
</defs>
</svg>
